<svg width="24" height="24" viewBox="0 0 24 24" fill="none" xmlns="http://www.w3.org/2000/svg">
<path d="M12.0285 16.1645C11.7778 15.946 11.5726 15.4951 11.5726 15.1624V3.6047C11.5726 3.27215 11.3006 3.00014 10.9681 3.00014H10.1926C9.86007 3.00014 9.58805 3.27214 9.58805 3.6047L9.58792 15.1621C9.58792 15.4949 9.37457 15.9358 9.11395 16.1423C9.11395 16.1423 7.99994 17.0245 7.99994 17.8586C7.99994 19.1463 9.13312 20.1903 10.5309 20.1903C11.9285 20.1903 13.0615 19.1462 13.0615 17.8586C13.0615 17.0646 12.0285 16.1643 12.0285 16.1643L12.0285 16.1645Z" fill="#D86191"/>
<path d="M11.3216 6.35842C11.3216 6.69096 11.0496 6.96298 10.717 6.96298H10.4522C10.1197 6.96298 9.84764 6.69097 9.84764 6.35842L9.8475 3.86722C9.8475 3.53468 10.1195 3.26266 10.4521 3.26266H10.7169C11.0494 3.26266 11.3214 3.53467 11.3214 3.86722L11.3216 6.35842Z" fill="#D86191"/>
<path d="M14.5921 13.6013C14.5921 14.1723 14.1296 14.6349 13.5583 14.6349C12.9869 14.6349 12.5246 14.1725 12.5246 13.6013L13.5444 11.7406L14.5921 13.6013Z" fill="#D86191"/>
<path d="M15.7046 15.2926C15.7013 15.6241 15.4305 15.8899 15.0987 15.8867C14.7678 15.8837 14.5017 15.6128 14.505 15.2812L15.1071 14.2071L15.7046 15.2926Z" fill="#D86191"/>
<path d="M15.4869 12.6409C15.4852 12.8385 15.3235 12.9971 15.1261 12.9951C14.9288 12.9932 14.7698 12.8317 14.772 12.6343L15.1312 11.9938L15.4869 12.6409Z" fill="#D86191"/>
<path d="M12.0069 18.3375C11.9872 18.3372 12.0044 18.3371 12.045 18.3371C12.085 18.3371 11.9978 18.5814 11.8508 18.8796L11.8028 18.9767C11.656 19.275 11.3173 19.5193 11.0504 19.5193H10.5646H10.0793C9.81237 19.5193 9.47367 19.275 9.32662 18.9767L9.27867 18.8796C9.13161 18.5814 9.04483 18.3371 9.08554 18.3371C9.12653 18.3371 9.432 18.3371 9.76458 18.3374L11.4384 18.3376C11.7707 18.3376 12.0268 18.3375 12.0069 18.3375H12.0069Z" fill="#D86191"/>
<path d="M10.3447 18.0755C9.95943 18.0533 9.73911 17.929 9.54197 17.5552C9.34482 17.181 9.36853 17.0372 9.56741 16.5997L9.5796 16.6011C10.0438 16.6842 10.1746 16.7483 10.3695 17.1197C10.5673 17.4932 10.5447 17.7457 10.3446 18.0753" fill="#D86191"/>
<path d="M10.7963 17.01C10.6246 17.0002 10.5264 16.9447 10.4387 16.7783C10.351 16.6119 10.3614 16.5476 10.4502 16.3529L10.4553 16.3533C10.6621 16.3904 10.7205 16.4192 10.8069 16.5844C10.8947 16.7506 10.8847 16.8632 10.7956 17.01" fill="#D86191"/>
<path d="M11.0178 18.0755C10.8425 17.8603 10.8015 17.6826 10.9045 17.3962C11.008 17.1098 11.0958 17.0529 11.4248 16.946L11.4295 16.9535C11.6111 17.2403 11.6399 17.341 11.5381 17.6246C11.4352 17.911 11.2898 18.021 11.0178 18.0747" fill="#D86191"/>
</svg>
