<svg width="25" height="24" viewBox="0 0 25 24" fill="none" xmlns="http://www.w3.org/2000/svg">
<path d="M4.43281 10.3757H12.1101C13.0389 10.3824 13.9375 10.0458 14.6334 9.43059C15.3293 8.81533 15.7736 7.96474 15.8808 7.04211C15.9842 6.0059 15.6408 4.97465 14.9366 4.20737C14.2375 3.43982 13.2479 3.00162 12.2097 2.99987H10.1381C9.8049 2.99987 9.49701 3.17772 9.33038 3.46622C9.16377 3.75484 9.16377 4.11041 9.33038 4.39903C9.49699 4.68751 9.8049 4.86538 10.1381 4.86538H12.2097C12.7347 4.86605 13.234 5.09306 13.58 5.48801C13.9258 5.88298 14.0849 6.40783 14.0163 6.92842C13.9476 7.37506 13.7191 7.78155 13.3732 8.0723C13.0274 8.36319 12.5877 8.51842 12.1359 8.50944H4.43264C4.09942 8.50944 3.79153 8.68716 3.6249 8.97579C3.45827 9.26442 3.45829 9.61985 3.6249 9.90847C3.79151 10.1971 4.09942 10.3748 4.43264 10.3748L4.43281 10.3757Z" fill="#5E4FC1"/>
<path d="M21.4834 16.5293C21.3762 15.6067 20.9321 14.7562 20.2363 14.1411C19.5404 13.5258 18.642 13.1891 17.7132 13.1957H11.3001C10.9668 13.1957 10.659 13.3734 10.4923 13.6621C10.3257 13.9507 10.3257 14.3063 10.4923 14.5947C10.6589 14.8834 10.9668 15.0611 11.3001 15.0611H17.7386C18.1903 15.0521 18.63 15.2075 18.9758 15.4982C19.3218 15.7891 19.5502 16.1956 19.6189 16.6421C19.6875 17.1627 19.5285 17.6875 19.1826 18.0825C18.8366 18.4776 18.3374 18.7045 17.8124 18.7053H15.74C15.4067 18.7053 15.0989 18.883 14.9322 19.1716C14.7656 19.4601 14.7656 19.8157 14.9322 20.1043C15.0988 20.3929 15.4067 20.5707 15.74 20.5707H17.8114C18.8501 20.5697 19.8405 20.1318 20.54 19.3641C21.2439 18.5967 21.587 17.5655 21.4832 16.5294L21.4834 16.5293Z" fill="#5E4FC1"/>
<path d="M9.24482 14.1293C9.24469 13.8818 9.14638 13.6446 8.9716 13.4696C8.79669 13.2945 8.55949 13.196 8.31215 13.1957H4.43272C4.09951 13.1957 3.79162 13.3734 3.62499 13.6621C3.45838 13.9507 3.45838 14.3062 3.62499 14.5947C3.79159 14.8833 4.0995 15.0611 4.43272 15.0611H8.31215C8.55925 15.0608 8.79616 14.9625 8.97095 14.7879C9.14574 14.6132 9.2443 14.3764 9.24484 14.1293L9.24482 14.1293Z" fill="#5E4FC1"/>
<path d="M16.2052 10.9781C16.2847 10.9781 16.3611 10.9465 16.4173 10.8903L17.0495 10.2581H17.0493C17.9181 10.4303 18.8143 10.1413 19.4188 9.49405C20.0233 8.84677 20.2505 7.93312 20.0193 7.0781C19.9917 6.97417 19.9106 6.89301 19.8067 6.86542C18.9516 6.6344 18.038 6.86154 17.3907 7.46597C16.7434 8.07053 16.4544 8.96666 16.6267 9.83543L15.9931 10.4657C15.9073 10.5516 15.8816 10.6805 15.9281 10.7926C15.9746 10.9047 16.0839 10.9777 16.2052 10.9778L16.2052 10.9781Z" fill="#5E4FC1"/>
<path d="M9.73133 16.3243L9.09917 15.6921C8.98145 15.5784 8.79435 15.5802 8.67862 15.6959C8.56289 15.8116 8.56129 15.9987 8.675 16.1164L9.30676 16.7486V16.7485C9.14403 17.5851 9.40573 18.4479 10.0057 19.0531C10.6297 19.6705 12.0245 20.1949 12.6997 19.5031H12.6999C12.9306 18.6484 12.7036 17.7351 12.0996 17.088C11.4954 16.4407 10.5998 16.1516 9.73132 16.3231L9.73133 16.3243Z" fill="#5E4FC1"/>
</svg>
