<svg width="24" height="24" viewBox="0 0 24 24" fill="none" xmlns="http://www.w3.org/2000/svg">
<path d="M3.93281 10.3757H11.6101C12.5389 10.3824 13.4375 10.0458 14.1334 9.43059C14.8293 8.81533 15.2736 7.96474 15.3808 7.04211C15.4842 6.00589 15.1408 4.97465 14.4366 4.20737C13.7375 3.43982 12.7479 3.00161 11.7097 2.99986H9.63812C9.3049 2.99986 8.99701 3.17772 8.83038 3.46622C8.66377 3.75483 8.66377 4.11041 8.83038 4.39903C8.99699 4.68751 9.3049 4.86538 9.63812 4.86538H11.7097C12.2347 4.86605 12.734 5.09306 13.08 5.48801C13.4258 5.88298 13.5849 6.40782 13.5163 6.92842C13.4476 7.37506 13.2191 7.78155 12.8732 8.07229C12.5274 8.36318 12.0877 8.51842 11.6359 8.50943H3.93264C3.59942 8.50943 3.29153 8.68716 3.1249 8.97579C2.95827 9.26442 2.95829 9.61984 3.1249 9.90846C3.29151 10.1971 3.59942 10.3748 3.93264 10.3748L3.93281 10.3757Z" fill="white"/>
<path d="M20.9834 16.5293C20.8762 15.6067 20.4321 14.7562 19.7363 14.1411C19.0404 13.5258 18.142 13.1891 17.2132 13.1957H10.8001C10.4668 13.1957 10.159 13.3734 9.99233 13.6621C9.82572 13.9507 9.82572 14.3063 9.99233 14.5947C10.1589 14.8834 10.4668 15.0611 10.8001 15.0611H17.2386C17.6903 15.0521 18.13 15.2075 18.4758 15.4982C18.8218 15.7891 19.0502 16.1956 19.1189 16.6421C19.1875 17.1627 19.0285 17.6875 18.6826 18.0825C18.3366 18.4776 17.8374 18.7045 17.3124 18.7053H15.24C14.9067 18.7053 14.5989 18.883 14.4322 19.1716C14.2656 19.4601 14.2656 19.8157 14.4322 20.1043C14.5988 20.3929 14.9067 20.5707 15.24 20.5707H17.3114C18.3501 20.5697 19.3405 20.1318 20.04 19.3641C20.7439 18.5967 21.087 17.5655 20.9832 16.5294L20.9834 16.5293Z" fill="white"/>
<path d="M8.74482 14.1293C8.74469 13.8818 8.64638 13.6446 8.4716 13.4696C8.29669 13.2945 8.05949 13.196 7.81215 13.1957H3.93272C3.59951 13.1957 3.29162 13.3734 3.12499 13.662C2.95838 13.9507 2.95838 14.3062 3.12499 14.5947C3.29159 14.8833 3.5995 15.0611 3.93272 15.0611H7.81215C8.05925 15.0608 8.29616 14.9625 8.47095 14.7879C8.64574 14.6132 8.7443 14.3764 8.74484 14.1293L8.74482 14.1293Z" fill="white"/>
<path d="M15.7052 10.9781C15.7847 10.9781 15.8611 10.9465 15.9173 10.8903L16.5495 10.2581H16.5493C17.4181 10.4303 18.3143 10.1413 18.9188 9.49404C19.5233 8.84676 19.7505 7.93311 19.5193 7.07809C19.4917 6.97417 19.4106 6.893 19.3067 6.86541C18.4516 6.63439 17.538 6.86153 16.8907 7.46596C16.2434 8.07053 15.9544 8.96665 16.1267 9.83542L15.4931 10.4657C15.4073 10.5515 15.3816 10.6805 15.4281 10.7926C15.4746 10.9047 15.5839 10.9777 15.7052 10.9778L15.7052 10.9781Z" fill="white"/>
<path d="M9.23133 16.3243L8.59917 15.6921C8.48145 15.5784 8.29435 15.5801 8.17862 15.6959C8.06289 15.8116 8.06129 15.9987 8.175 16.1164L8.80676 16.7486V16.7484C8.64403 17.5851 8.90573 18.4479 9.50574 19.0531C10.1297 19.6705 11.5245 20.1949 12.1997 19.5031H12.1999C12.4306 18.6484 12.2036 17.7351 11.5996 17.088C10.9954 16.4407 10.0998 16.1516 9.23132 16.3231L9.23133 16.3243Z" fill="white"/>
</svg>
