<svg width="60" height="60" viewBox="0 0 60 60" fill="none" xmlns="http://www.w3.org/2000/svg">
<circle cx="30" cy="30" r="29.6809" stroke="#E7B0C9" stroke-width="0.638298"/>
<circle cx="30" cy="30" r="26.4894" stroke="#E7B0C9" stroke-width="0.638298"/>
<circle cx="30" cy="30" r="23.2979" stroke="#E7B0C9" stroke-width="0.638298"/>
<path d="M20.5893 47.121C20.5893 47.121 20.494 46.7942 20.3033 46.1406C20.1399 45.487 19.8948 44.5883 19.568 43.4444C19.2684 42.3006 18.9144 40.9934 18.5059 39.5227C18.0974 38.0521 17.648 36.4861 17.1578 34.8249C16.6948 33.1636 16.2046 31.4887 15.6872 29.8002C15.197 28.1117 14.7067 26.4912 14.2165 24.9389C13.9714 24.1219 13.5765 23.5227 13.0319 23.1414C12.5144 22.7602 11.7927 22.5559 10.8667 22.5287C10.8395 22.5014 10.8259 22.4742 10.8259 22.447C10.7987 22.3925 10.7714 22.3517 10.7442 22.3244L11.0302 20.241C11.0302 20.241 11.3161 20.2546 11.888 20.2819C12.4872 20.3091 13.168 20.3363 13.9306 20.3636C14.6931 20.3636 15.3195 20.3636 15.8097 20.3636C16.8446 20.3636 17.825 20.3363 18.751 20.2819C19.7042 20.2002 20.494 20.1321 21.1204 20.0776C21.7467 19.9959 22.0599 19.9551 22.0599 19.9551L22.2233 20.2819L22.0191 22.2427C21.1204 22.2972 20.4259 22.3925 19.9357 22.5287C19.4727 22.6376 19.1459 22.801 18.9553 23.0189C18.7919 23.2095 18.7102 23.4819 18.7102 23.8359C18.7102 24.081 18.7919 24.5849 18.9553 25.3474C19.1187 26.11 19.3229 27.0359 19.568 28.1253C19.8404 29.2146 20.1399 30.3857 20.4667 31.6385C20.7936 32.8912 21.1067 34.1304 21.4063 35.3559C21.7331 36.5542 22.0191 37.6572 22.2642 38.6649C22.5365 39.6453 22.7408 40.4351 22.877 41.0342C23.0404 41.6061 23.1221 41.8921 23.1221 41.8921H23.5306C23.8302 41.0751 24.1433 40.19 24.4702 39.2368C24.8242 38.2563 25.1782 37.2351 25.5323 36.1729C25.9136 35.1108 26.2812 34.0351 26.6353 32.9457C26.9893 31.8291 27.3433 30.7397 27.6974 29.6776C28.0514 28.6155 28.3919 27.6078 28.7187 26.6546C28.637 26.3006 28.5553 25.9602 28.4736 25.6334C28.3919 25.2793 28.2965 24.9389 28.1876 24.6121C27.9697 23.8495 27.5884 23.3185 27.0438 23.0189C26.5263 22.7193 25.7774 22.5559 24.797 22.5287L24.6336 22.3244L24.9604 20.241C24.9604 20.241 25.1374 20.2546 25.4914 20.2819C25.8727 20.2819 26.3357 20.2955 26.8804 20.3227C27.425 20.3227 27.9833 20.3363 28.5553 20.3636C29.1272 20.3636 29.6038 20.3636 29.985 20.3636C30.8838 20.3636 31.8097 20.3363 32.7629 20.2819C33.7433 20.2002 34.5604 20.1321 35.214 20.0776C35.8948 19.9959 36.2353 19.9551 36.2353 19.9551L36.3987 20.2819L36.1944 22.2427C35.2957 22.2972 34.6012 22.3789 34.111 22.4878C33.648 22.5968 33.3212 22.7602 33.1306 22.978C32.9672 23.1959 32.8855 23.4955 32.8855 23.8768C32.8855 24.0946 32.9536 24.5712 33.0897 25.3066C33.2531 26.0419 33.471 26.9678 33.7433 28.0844C34.0157 29.1738 34.3016 30.3449 34.6012 31.5976C34.928 32.8232 35.2412 34.0487 35.5408 35.2742C35.8676 36.4725 36.1672 37.5755 36.4395 38.5832C36.7119 39.5908 36.9297 40.3942 37.0931 40.9934C37.2565 41.5925 37.3382 41.8921 37.3382 41.8921H37.7059C37.9782 41.1568 38.305 40.2444 38.6863 39.1551C39.0676 38.0385 39.4761 36.8402 39.9119 35.5602C40.3748 34.2529 40.8242 32.9593 41.2599 31.6793C41.6957 30.3721 42.0906 29.1602 42.4446 28.0436C42.7987 26.8997 43.0846 25.9466 43.3025 25.184C43.5204 24.3942 43.6293 23.904 43.6293 23.7134C43.6293 23.2232 43.4387 22.8827 43.0574 22.6921C42.6761 22.5014 42.0361 22.4061 41.1374 22.4061H39.3399L39.1765 22.2019L39.5033 20.1185C39.5033 20.1185 39.8029 20.1457 40.4021 20.2002C41.0012 20.2274 41.7365 20.2683 42.608 20.3227C43.5067 20.35 44.3919 20.3636 45.2633 20.3636C45.917 20.3636 46.5842 20.3636 47.265 20.3636C47.9459 20.3363 48.5178 20.3091 48.9808 20.2819C49.4438 20.2546 49.6753 20.241 49.6753 20.241L49.3893 22.5287C48.6812 22.5559 48.1774 22.7057 47.8778 22.978C47.5782 23.2232 47.2787 23.7406 46.9791 24.5304L39.0131 46.2632L34.7646 47.121C34.7374 46.9304 34.6012 46.3585 34.3561 45.4053C34.111 44.4521 33.7842 43.2266 33.3757 41.7287C32.9944 40.2308 32.545 38.5559 32.0276 36.704C31.5102 34.8521 30.9519 32.9457 30.3527 30.9849H30.0259L24.8787 46.2632L20.5893 47.121ZM51.5783 46.9168C50.7069 46.9168 50.0532 46.6717 49.6175 46.1814C49.1817 45.664 48.9639 45.0376 48.9639 44.3023C48.9639 43.458 49.2226 42.7636 49.74 42.2189C50.2847 41.6742 50.9792 41.4019 51.8234 41.4019C52.6949 41.4019 53.3486 41.6606 53.7843 42.178C54.2473 42.6683 54.4788 43.2946 54.4788 44.0572C54.4788 44.847 54.22 45.5278 53.7026 46.0997C53.1852 46.6444 52.4771 46.9168 51.5783 46.9168Z" fill="#FBFBFB" fill-opacity="0.5"/>
<path d="M19.7718 47.121C19.7718 47.121 19.6765 46.7942 19.4858 46.1406C19.3224 45.487 19.0773 44.5883 18.7505 43.4444C18.4509 42.3006 18.0969 40.9934 17.6884 39.5227C17.2799 38.0521 16.8305 36.4861 16.3403 34.8249C15.8773 33.1636 15.3871 31.4887 14.8697 29.8002C14.3795 28.1117 13.8892 26.4912 13.399 24.9389C13.1539 24.1219 12.759 23.5227 12.2143 23.1414C11.6969 22.7602 10.9752 22.5559 10.0492 22.5287C10.022 22.5014 10.0084 22.4742 10.0084 22.447C9.98116 22.3925 9.95392 22.3517 9.92669 22.3244L10.2126 20.241C10.2126 20.241 10.4986 20.2546 11.0705 20.2819C11.6697 20.3091 12.3505 20.3363 13.1131 20.3636C13.8756 20.3636 14.502 20.3636 14.9922 20.3636C16.0271 20.3636 17.0075 20.3363 17.9335 20.2819C18.8867 20.2002 19.6765 20.1321 20.3029 20.0776C20.9292 19.9959 21.2424 19.9551 21.2424 19.9551L21.4058 20.2819L21.2016 22.2427C20.3029 22.2972 19.6084 22.3925 19.1182 22.5287C18.6552 22.6376 18.3284 22.801 18.1378 23.0189C17.9743 23.2095 17.8926 23.4819 17.8926 23.8359C17.8926 24.081 17.9743 24.5849 18.1378 25.3474C18.3012 26.11 18.5054 27.0359 18.7505 28.1253C19.0229 29.2146 19.3224 30.3857 19.6492 31.6385C19.9761 32.8912 20.2892 34.1304 20.5888 35.3559C20.9156 36.5542 21.2016 37.6572 21.4467 38.6649C21.719 39.6453 21.9233 40.4351 22.0595 41.0342C22.2229 41.6061 22.3046 41.8921 22.3046 41.8921H22.7131C23.0126 41.0751 23.3258 40.19 23.6526 39.2368C24.0067 38.2563 24.3607 37.2351 24.7148 36.1729C25.0961 35.1108 25.4637 34.0351 25.8178 32.9457C26.1718 31.8291 26.5258 30.7397 26.8799 29.6776C27.2339 28.6155 27.5743 27.6078 27.9012 26.6546C27.8195 26.3006 27.7378 25.9602 27.6561 25.6334C27.5743 25.2793 27.479 24.9389 27.3701 24.6121C27.1522 23.8495 26.7709 23.3185 26.2263 23.0189C25.7088 22.7193 24.9599 22.5559 23.9795 22.5287L23.8161 22.3244L24.1429 20.241C24.1429 20.241 24.3199 20.2546 24.6739 20.2819C25.0552 20.2819 25.5182 20.2955 26.0629 20.3227C26.6075 20.3227 27.1658 20.3363 27.7378 20.3636C28.3097 20.3636 28.7863 20.3636 29.1675 20.3636C30.0663 20.3636 30.9922 20.3363 31.9454 20.2819C32.9258 20.2002 33.7429 20.1321 34.3965 20.0776C35.0773 19.9959 35.4178 19.9551 35.4178 19.9551L35.5812 20.2819L35.3769 22.2427C34.4782 22.2972 33.7837 22.3789 33.2935 22.4878C32.8305 22.5968 32.5037 22.7602 32.3131 22.978C32.1497 23.1959 32.068 23.4955 32.068 23.8768C32.068 24.0946 32.1361 24.5712 32.2722 25.3066C32.4356 26.0419 32.6535 26.9678 32.9258 28.0844C33.1982 29.1738 33.4841 30.3449 33.7837 31.5976C34.1105 32.8232 34.4237 34.0487 34.7233 35.2742C35.0501 36.4725 35.3497 37.5755 35.622 38.5832C35.8943 39.5908 36.1122 40.3942 36.2756 40.9934C36.439 41.5925 36.5207 41.8921 36.5207 41.8921H36.8884C37.1607 41.1568 37.4875 40.2444 37.8688 39.1551C38.2501 38.0385 38.6586 36.8402 39.0943 35.5602C39.5573 34.2529 40.0067 32.9593 40.4424 31.6793C40.8782 30.3721 41.2731 29.1602 41.6271 28.0436C41.9812 26.8997 42.2671 25.9466 42.485 25.184C42.7029 24.3942 42.8118 23.904 42.8118 23.7134C42.8118 23.2232 42.6212 22.8827 42.2399 22.6921C41.8586 22.5014 41.2186 22.4061 40.3199 22.4061H38.5224L38.359 22.2019L38.6858 20.1185C38.6858 20.1185 38.9854 20.1457 39.5846 20.2002C40.1837 20.2274 40.919 20.2683 41.7905 20.3227C42.6892 20.35 43.5744 20.3636 44.4458 20.3636C45.0995 20.3636 45.7667 20.3636 46.4475 20.3636C47.1284 20.3363 47.7003 20.3091 48.1633 20.2819C48.6263 20.2546 48.8578 20.241 48.8578 20.241L48.5718 22.5287C47.8637 22.5559 47.3599 22.7057 47.0603 22.978C46.7607 23.2232 46.4612 23.7406 46.1616 24.5304L38.1956 46.2632L33.9471 47.121C33.9199 46.9304 33.7837 46.3585 33.5386 45.4053C33.2935 44.4521 32.9667 43.2266 32.5582 41.7287C32.1769 40.2308 31.7275 38.5559 31.2101 36.704C30.6926 34.8521 30.1343 32.9457 29.5352 30.9849H29.2084L24.0612 46.2632L19.7718 47.121ZM50.7608 46.9168C49.8893 46.9168 49.2357 46.6717 48.8 46.1814C48.3642 45.664 48.1464 45.0376 48.1464 44.3023C48.1464 43.458 48.4051 42.7636 48.9225 42.2189C49.4672 41.6742 50.1617 41.4019 51.0059 41.4019C51.8774 41.4019 52.5311 41.6606 52.9668 42.178C53.4298 42.6683 53.6613 43.2946 53.6613 44.0572C53.6613 44.847 53.4025 45.5278 52.8851 46.0997C52.3676 46.6444 51.6596 46.9168 50.7608 46.9168Z" fill="#FBFBFB"/>
</svg>
